<svg width="44" height="45" viewBox="0 0 44 45" fill="none" xmlns="http://www.w3.org/2000/svg">
<g clip-path="url(#clip0_20_562)">
<path d="M35.9328 28.3664H29.4943C29.0917 27.9198 28.5138 27.6331 27.8663 27.6331C27.3009 27.6331 26.7898 27.8538 26.3996 28.2051C26.0095 27.8531 25.4984 27.6331 24.933 27.6331C24.3676 27.6331 23.8565 27.8538 23.4663 28.2051C23.0762 27.8531 22.5651 27.6331 21.9997 27.6331C21.4343 27.6331 20.9232 27.8538 20.533 28.2051C20.1429 27.8531 19.6318 27.6331 19.0664 27.6331C18.4189 27.6331 17.8417 27.9198 17.4384 28.3664H5.13323C4.72843 28.3664 4.3999 28.695 4.3999 29.0998V34.233C4.3999 36.2548 6.04475 37.8997 8.06652 37.8997H13.9331V41.5663C13.9331 41.7606 14.0101 41.9476 14.148 42.0847L15.3998 43.3365V44.4996H16.8664V43.0329C16.8664 42.8386 16.7894 42.6516 16.6516 42.5145L15.3998 41.2627V32.8588C16.6633 33.1851 17.5997 34.335 17.5997 35.6997V39.3663H19.0664V37.8997H28.5996V44.4996H30.0662V37.8997H38.8661C39.2709 37.8997 39.5995 37.5711 39.5995 37.1663V32.0331C39.5995 30.0113 37.9546 28.3664 35.9328 28.3664ZM16.8664 31.8952C16.2182 31.519 15.468 31.2997 14.6664 31.2997C14.2616 31.2997 13.9331 31.6283 13.9331 32.0331V36.433H8.06652C6.85361 36.433 5.86655 35.446 5.86655 34.233V29.8331H16.8664V31.8952ZM27.133 29.8331C27.133 29.429 27.4622 29.0998 27.8663 29.0998C28.2703 29.0998 28.5996 29.429 28.5996 29.8331V32.7664C28.5996 33.1704 28.2703 33.4997 27.8663 33.4997C27.4622 33.4997 27.133 33.1704 27.133 32.7664V29.8331ZM24.1997 29.8331C24.1997 29.429 24.5289 29.0998 24.933 29.0998C25.337 29.0998 25.6663 29.429 25.6663 29.8331V32.7664C25.6663 33.1704 25.337 33.4997 24.933 33.4997C24.5289 33.4997 24.1997 33.1704 24.1997 32.7664V29.8331ZM21.2664 29.8331C21.2664 29.429 21.5956 29.0998 21.9997 29.0998C22.4037 29.0998 22.733 29.429 22.733 29.8331V32.7664C22.733 33.1704 22.4037 33.4997 21.9997 33.4997C21.5956 33.4997 21.2664 33.1704 21.2664 32.7664V29.8331ZM18.3331 32.7664V29.8331C18.3331 29.429 18.6623 29.0998 19.0664 29.0998C19.4704 29.0998 19.7997 29.429 19.7997 29.8331V32.7664C19.7997 33.1704 19.4704 33.4997 19.0664 33.4997C18.6623 33.4997 18.3331 33.1704 18.3331 32.7664ZM38.1328 36.433H19.0664V35.6997C19.0664 35.4467 19.04 35.201 18.9989 34.9598C19.0217 34.9605 19.0437 34.9664 19.0664 34.9664C19.6318 34.9664 20.1429 34.7456 20.533 34.3944C20.9232 34.7464 21.4343 34.9664 21.9997 34.9664C22.5651 34.9664 23.0762 34.7456 23.4663 34.3944C23.8565 34.7464 24.3676 34.9664 24.933 34.9664C25.4984 34.9664 26.0095 34.7456 26.3996 34.3944C26.7898 34.7464 27.3009 34.9664 27.8663 34.9664C29.0792 34.9664 30.0662 33.9793 30.0662 32.7664V29.8331H35.9328C37.1458 29.8331 38.1328 30.8201 38.1328 32.0331V36.433Z" fill="white"/>
<path d="M43.9225 21.438L42.5328 18.6602V7.68083L43.4495 7.44397C43.7736 7.35964 43.9995 7.06777 43.9995 6.73338C43.9995 6.39898 43.7736 6.10712 43.4495 6.02352L22.1831 0.523588C22.0628 0.492788 21.9359 0.492788 21.8157 0.523588L0.54926 6.02352C0.225864 6.10712 0 6.39898 0 6.73338C0 7.06777 0.225864 7.35964 0.549993 7.44324L10.2665 9.95634V20.2999C10.2665 20.6365 10.4953 20.9298 10.8217 21.0112L15.4783 22.175C15.3859 22.3612 15.3734 22.5812 15.4555 22.78C15.5692 23.0542 15.8369 23.2332 16.1331 23.2332H17.5998V24.6998C17.5998 24.9961 17.7787 25.2637 18.0522 25.3774C18.1432 25.4148 18.2385 25.4331 18.3331 25.4331C18.5238 25.4331 18.7115 25.3583 18.8516 25.2183L21.9997 22.0701L25.1479 25.2183C25.288 25.3583 25.4757 25.4331 25.6663 25.4331C25.7609 25.4331 25.8563 25.4148 25.9472 25.3774C26.2207 25.2637 26.3997 24.9961 26.3997 24.6998V23.2332H27.8663C28.1626 23.2332 28.4302 23.0542 28.5439 22.7807C28.626 22.5812 28.6136 22.362 28.5212 22.1757L33.1778 21.0119C33.5041 20.9298 33.7329 20.6365 33.7329 20.2999V9.95634L41.0662 8.05996V18.6602L39.6765 21.4387C39.5731 21.6455 39.5731 21.8883 39.6765 22.0951L41.1432 25.0283C41.2678 25.2762 41.5216 25.4331 41.7995 25.4331C42.0774 25.4331 42.3311 25.2762 42.4558 25.0276L43.9225 22.0943C44.0259 21.8875 44.0259 21.6448 43.9225 21.438ZM19.0664 22.9296V22.4998C19.0664 22.0951 18.7379 21.7665 18.3331 21.7665H17.9034L19.2138 20.4561C19.5746 20.8821 20.0198 21.2319 20.5375 21.4585L19.0664 22.9296ZM19.7998 18.0999C19.7998 16.887 20.7868 15.8999 21.9997 15.8999C23.2126 15.8999 24.1997 16.887 24.1997 18.0999C24.1997 19.3128 23.2126 20.2999 21.9997 20.2999C20.7868 20.2999 19.7998 19.3128 19.7998 18.0999ZM25.6663 21.7665C25.2616 21.7665 24.933 22.0951 24.933 22.4998V22.9296L23.462 21.4585C23.9797 21.2319 24.4248 20.8821 24.7856 20.4561L26.0961 21.7665H25.6663ZM32.2663 19.7271L27.3581 20.954L25.5087 19.1046C25.6011 18.7834 25.6663 18.4512 25.6663 18.0999C25.6663 16.0781 24.0215 14.4333 21.9997 14.4333C19.978 14.4333 18.3331 16.0781 18.3331 18.0999C18.3331 18.4512 18.3984 18.7834 18.4908 19.1053L16.6413 20.9547L11.7332 19.7271V10.3355L21.8164 12.9432C21.8765 12.9586 21.9381 12.9666 21.9997 12.9666C22.0613 12.9666 22.1229 12.9586 22.1831 12.9432L32.2663 10.3355V19.7271ZM21.9997 11.4758L3.66222 6.73338L21.9997 1.99097L40.3372 6.73338L21.9997 11.4758ZM41.7995 23.0601L41.1527 21.7665L41.7995 20.4729L42.4463 21.7665L41.7995 23.0601Z" fill="white"/>
<path d="M5.86655 25.4331H4.3999V26.8998H5.86655V25.4331Z" fill="white"/>
<path d="M8.79966 25.4331H7.33301V26.8998H8.79966V25.4331Z" fill="white"/>
<path d="M11.7332 25.4331H10.2666V26.8998H11.7332V25.4331Z" fill="white"/>
</g>
<defs>
<clipPath id="clip0_20_562">
<rect width="44" height="44" fill="white" transform="translate(0 0.500031)"/>
</clipPath>
</defs>
</svg>
