<svg width="44" height="45" viewBox="0 0 44 45" fill="none" xmlns="http://www.w3.org/2000/svg">
<g clip-path="url(#clip0_20_177)">
<path d="M22.7333 0.500031H21.2666V4.90003H22.7333V0.500031Z" fill="white"/>
<path d="M39.0798 4.38306L35.4138 8.04907L36.4509 9.08615L40.1169 5.42014L39.0798 4.38306Z" fill="white"/>
<path d="M4.91843 4.38132L3.88135 5.4184L7.54736 9.08441L8.58444 8.04733L4.91843 4.38132Z" fill="white"/>
<path d="M7.54663 35.912L3.88062 39.578L4.9177 40.6151L8.58371 36.9491L7.54663 35.912Z" fill="white"/>
<path d="M41.2859 20.4922C41.624 19.7398 41.8 18.9258 41.8 18.1C41.8 14.8653 39.1681 12.2334 35.9333 12.2334C35.5571 12.2334 35.1824 12.27 34.8121 12.3426C33.957 10.0869 31.7988 8.5667 29.3333 8.5667C28.5076 8.5667 27.6936 8.7427 26.9412 9.08077C25.8735 7.41097 24.0071 6.3667 22 6.3667C19.9929 6.3667 18.1265 7.41097 17.0588 9.08077C16.3064 8.7427 15.4924 8.5667 14.6667 8.5667C12.2012 8.5667 10.043 10.0869 9.18793 12.3426C8.8176 12.27 8.44287 12.2334 8.06667 12.2334C4.83193 12.2334 2.2 14.8653 2.2 18.1C2.2 18.9258 2.376 19.7398 2.71407 20.4922C1.04427 21.5606 0 23.4262 0 25.4334C0 28.6681 2.63193 31.3 5.86667 31.3H17.1241C16.9642 31.6344 16.8667 32.0048 16.8667 32.4C16.8667 33.1187 17.1651 33.767 17.6425 34.2334C17.1651 34.6998 16.8667 35.348 16.8667 36.0667C16.8667 36.7854 17.1651 37.4336 17.6425 37.9C17.1651 38.3664 16.8667 39.0147 16.8667 39.7334C16.8667 41.0556 17.8757 42.135 19.162 42.2729C19.4803 43.5482 20.6272 44.5 22 44.5C23.3728 44.5 24.5197 43.5482 24.838 42.2729C26.1243 42.135 27.1333 41.0556 27.1333 39.7334C27.1333 39.0147 26.8349 38.3664 26.3575 37.9C26.8349 37.4336 27.1333 36.7854 27.1333 36.0667C27.1333 35.348 26.8349 34.6998 26.3575 34.2334C26.8349 33.767 27.1333 33.1187 27.1333 32.4C27.1333 32.0048 27.0358 31.6344 26.8759 31.3H30.8367C31.2055 35.0004 34.3369 37.9 38.1333 37.9C38.5389 37.9 38.8667 37.5715 38.8667 37.1667V31.2546C41.756 30.8923 44 28.4195 44 25.4334C44 23.4262 42.9557 21.5606 41.2859 20.4922ZM22 43.0334C21.4595 43.0334 20.9917 42.7364 20.7372 42.3H23.2628C23.0083 42.7364 22.5405 43.0334 22 43.0334ZM24.5667 40.8334H19.4333C18.8269 40.8334 18.3333 40.3398 18.3333 39.7334C18.3333 39.1269 18.8269 38.6334 19.4333 38.6334H24.5667C25.1731 38.6334 25.6667 39.1269 25.6667 39.7334C25.6667 40.3398 25.1731 40.8334 24.5667 40.8334ZM24.5667 37.1667H19.4333C18.8269 37.1667 18.3333 36.6732 18.3333 36.0667C18.3333 35.4602 18.8269 34.9667 19.4333 34.9667H24.5667C25.1731 34.9667 25.6667 35.4602 25.6667 36.0667C25.6667 36.6732 25.1731 37.1667 24.5667 37.1667ZM24.5667 33.5H19.4333C18.8269 33.5 18.3333 33.0065 18.3333 32.4C18.3333 31.7936 18.8269 31.3 19.4333 31.3H24.5667C25.1731 31.3 25.6667 31.7936 25.6667 32.4C25.6667 33.0065 25.1731 33.5 24.5667 33.5ZM18.92 21.9706C19.0623 22.1106 19.2478 22.181 19.4333 22.181C19.6189 22.181 19.8044 22.1106 19.9467 21.9706C20.7981 21.1353 21.2667 20.0214 21.2667 18.8334C21.2667 18.631 21.2483 18.4315 21.2212 18.2342C21.2146 18.1873 21.208 18.1411 21.2007 18.0949C21.1677 17.9006 21.1259 17.7092 21.0679 17.5222C21.0635 17.5075 21.0569 17.4936 21.0525 17.4789C20.9961 17.3044 20.9264 17.135 20.8487 16.9692C20.8289 16.9274 20.8098 16.8864 20.7893 16.8453C20.7013 16.6737 20.6045 16.5058 20.4945 16.3459C20.4901 16.3393 20.4871 16.332 20.482 16.3254C21.3899 15.7702 22.6116 15.7702 23.5202 16.3254C23.5158 16.332 23.5129 16.3393 23.5077 16.3459C23.397 16.5058 23.3002 16.6737 23.2129 16.8453C23.1917 16.8864 23.1726 16.9274 23.1535 16.9692C23.0758 17.135 23.0061 17.3044 22.9497 17.4789C22.9453 17.4936 22.9387 17.5075 22.9343 17.5222C22.8763 17.7084 22.8345 17.9006 22.8015 18.0949C22.7935 18.1411 22.7869 18.1873 22.781 18.2342C22.7517 18.4315 22.7333 18.631 22.7333 18.8334C22.7333 20.0214 23.2019 21.1353 24.0533 21.9706C24.1956 22.1106 24.3811 22.181 24.5667 22.181C24.7522 22.181 24.9377 22.1106 25.08 21.9706C25.9314 21.1353 26.4 20.0214 26.4 18.8334C26.4 18.631 26.3817 18.4315 26.3545 18.2342C26.3479 18.1873 26.3413 18.1411 26.334 18.0949C26.301 17.9006 26.2592 17.7092 26.2013 17.5222C26.1969 17.5075 26.1903 17.4936 26.1859 17.4789C26.1294 17.3044 26.0597 17.135 25.982 16.9692C25.9622 16.9274 25.9431 16.8864 25.9226 16.8453C25.8346 16.6737 25.7378 16.5058 25.6278 16.3459C25.6234 16.3393 25.6205 16.332 25.6153 16.3254C26.7146 15.6544 28.2443 15.8164 29.1874 16.7419C29.7535 17.3 30.0667 18.0428 30.0667 18.8334V20.641L23.793 24.8232C23.5891 24.9596 23.4667 25.1884 23.4667 25.4334V29.8334H20.5333V25.4334C20.5333 25.1884 20.4109 24.9596 20.207 24.8232L13.9333 20.6418V18.8334C13.9333 17.2156 15.2489 15.9 16.8667 15.9C17.4093 15.9 17.9315 16.0482 18.3854 16.3261C18.381 16.3327 18.3781 16.34 18.3737 16.3466C18.2629 16.5065 18.1661 16.6744 18.0789 16.846C18.0576 16.8871 18.0385 16.9282 18.0195 16.97C17.9417 17.1357 17.8721 17.3051 17.8156 17.4796C17.8112 17.4943 17.8046 17.5082 17.8002 17.5229C17.7423 17.7092 17.7005 17.9013 17.6675 18.0956C17.6594 18.1418 17.6528 18.188 17.6469 18.235C17.6183 18.4315 17.6 18.631 17.6 18.8334C17.6 20.0214 18.0686 21.1353 18.92 21.9706ZM19.0667 18.8334C19.0667 18.6574 19.0879 18.4843 19.118 18.3149C19.1246 18.2768 19.1319 18.2379 19.14 18.2005C19.1767 18.0355 19.2243 17.8742 19.2881 17.7194C19.2969 17.6974 19.3094 17.6769 19.3189 17.6556C19.3512 17.583 19.3952 17.5156 19.4333 17.4452C19.4715 17.5156 19.5155 17.583 19.5477 17.6556C19.5573 17.6762 19.569 17.6967 19.5785 17.7187C19.6423 17.8742 19.69 18.0355 19.7267 18.1998C19.7347 18.2379 19.7421 18.276 19.7487 18.3149C19.7787 18.485 19.8 18.6574 19.8 18.8334C19.8 19.0094 19.7787 19.1817 19.7487 19.3518C19.7421 19.3907 19.7347 19.4288 19.7267 19.467C19.69 19.632 19.6423 19.7933 19.5785 19.948C19.5697 19.9693 19.558 19.9898 19.5485 20.0111C19.5162 20.0844 19.4722 20.1519 19.4341 20.2216C19.3959 20.1512 19.3519 20.0837 19.3197 20.0111C19.3101 19.9898 19.2984 19.9686 19.2889 19.9473C19.2251 19.7918 19.1774 19.6305 19.1407 19.4662C19.1327 19.4281 19.1253 19.39 19.1187 19.3518C19.0879 19.1824 19.0667 19.0094 19.0667 18.8334ZM24.2 18.8334C24.2 18.6574 24.2213 18.4843 24.2513 18.3149C24.2579 18.2768 24.2653 18.2379 24.2733 18.2005C24.31 18.0355 24.3577 17.8742 24.4215 17.7194C24.4303 17.6974 24.4427 17.6769 24.4523 17.6556C24.4845 17.583 24.5285 17.5156 24.5667 17.4452C24.6048 17.5156 24.6488 17.583 24.6811 17.6556C24.6906 17.6762 24.7023 17.6967 24.7119 17.7187C24.7757 17.8742 24.8233 18.0355 24.86 18.1998C24.8681 18.2379 24.8754 18.276 24.882 18.3149C24.9121 18.485 24.9333 18.6574 24.9333 18.8334C24.9333 19.0094 24.9121 19.1817 24.882 19.3518C24.8754 19.3907 24.8681 19.4288 24.86 19.467C24.8233 19.632 24.7757 19.7933 24.7119 19.948C24.7031 19.9693 24.6913 19.9898 24.6818 20.0111C24.6495 20.0844 24.6055 20.1519 24.5674 20.2216C24.5293 20.1512 24.4853 20.0837 24.453 20.0111C24.4435 19.9898 24.4317 19.9686 24.4222 19.9473C24.3584 19.7918 24.3107 19.6305 24.2741 19.4662C24.266 19.4281 24.2587 19.39 24.2521 19.3518C24.2213 19.1824 24.2 19.0094 24.2 18.8334ZM38.1333 29.8334C37.7278 29.8334 37.4 30.1619 37.4 30.5667V36.3879C34.5107 36.0256 32.2667 33.5528 32.2667 30.5667C32.2667 30.1619 31.9389 29.8334 31.5333 29.8334H24.9333V25.8257L31.207 21.6435C31.4109 21.5071 31.5333 21.2783 31.5333 21.0334V18.8334C31.5333 17.6454 31.0647 16.5314 30.2133 15.6962L29.7 16.219L30.2133 15.6954C29.3839 14.8814 28.2905 14.4334 27.1333 14.4334C26.2005 14.4334 25.3117 14.7289 24.5667 15.2686C23.8216 14.7289 22.9328 14.4334 22 14.4334C21.0672 14.4334 20.1784 14.7289 19.4333 15.2686C18.6883 14.7289 17.7995 14.4334 16.8667 14.4334C14.4401 14.4334 12.4667 16.4068 12.4667 18.8334V21.0341C12.4667 21.279 12.5891 21.5078 12.793 21.6442L19.0667 25.8257V29.8334H5.86667C3.44007 29.8334 1.46667 27.86 1.46667 25.4334C1.46667 23.7357 2.464 22.1722 4.00913 21.4499C4.19833 21.3612 4.3406 21.1962 4.40073 20.996C4.46087 20.7958 4.43227 20.5794 4.323 20.4005C3.894 19.7046 3.66667 18.9089 3.66667 18.1C3.66667 15.6734 5.64007 13.7 8.06667 13.7C8.53307 13.7 8.99873 13.7763 9.45047 13.9259C9.64553 13.9912 9.85893 13.9706 10.0371 13.8709C10.2168 13.7712 10.3459 13.601 10.3943 13.4016C10.8717 11.4186 12.6287 10.0334 14.6667 10.0334C15.4763 10.0334 16.2712 10.26 16.9679 10.689C17.1453 10.7982 17.3595 10.8276 17.5633 10.7667C17.7628 10.7066 17.9285 10.5643 18.0173 10.3744C18.7381 8.8307 20.3023 7.83337 22 7.83337C23.6977 7.83337 25.2619 8.8307 25.9835 10.3751C26.0722 10.5643 26.2379 10.7073 26.4374 10.7674C26.6398 10.8283 26.8547 10.799 27.0329 10.6897C27.7288 10.26 28.5237 10.0334 29.3333 10.0334C31.3713 10.0334 33.1283 11.4186 33.6057 13.4016C33.6541 13.601 33.7832 13.7712 33.9629 13.8709C34.1418 13.9706 34.3552 13.9919 34.5495 13.9259C35.0013 13.7763 35.4669 13.7 35.9333 13.7C38.3599 13.7 40.3333 15.6734 40.3333 18.1C40.3333 18.9089 40.106 19.7046 39.677 20.4005C39.5677 20.5787 39.5391 20.795 39.5993 20.996C39.6594 21.1962 39.8017 21.3619 39.9909 21.4499C41.536 22.1722 42.5333 23.7357 42.5333 25.4334C42.5333 27.86 40.5599 29.8334 38.1333 29.8334Z" fill="white"/>
<path d="M14.6666 32.7667H13.2V34.2334H14.6666V32.7667Z" fill="white"/>
<path d="M11.7333 32.7667H10.2666V34.2334H11.7333V32.7667Z" fill="white"/>
<path d="M8.79992 32.7667H7.33325V34.2334H8.79992V32.7667Z" fill="white"/>
</g>
<defs>
<clipPath id="clip0_20_177">
<rect width="44" height="44" fill="white" transform="translate(0 0.500031)"/>
</clipPath>
</defs>
</svg>
