<svg width="44" height="45" viewBox="0 0 44 45" fill="none" xmlns="http://www.w3.org/2000/svg">
<g clip-path="url(#clip0_20_206)">
<path d="M5.50224 12.4647C4.31663 12.4647 3.35181 13.4295 3.35181 14.6151C3.35181 15.8007 4.31663 16.7656 5.50224 16.7656C6.68784 16.7656 7.65267 15.8007 7.65267 14.6151C7.65267 13.4295 6.68784 12.4647 5.50224 12.4647ZM5.50224 15.3319C5.10728 15.3319 4.78543 15.0101 4.78543 14.6151C4.78543 14.2202 5.10728 13.8983 5.50224 13.8983C5.8972 13.8983 6.21905 14.2202 6.21905 14.6151C6.21905 15.0101 5.8972 15.3319 5.50224 15.3319Z" fill="white"/>
<path d="M44 18.706L42.9864 17.6924L32.7289 27.9499C32.6902 27.9062 32.6593 27.8568 32.6178 27.8145L26.5865 21.7832L27.5133 20.8564L26.4998 19.8428L24.3716 21.971C23.2311 23.1108 21.4656 23.2685 20.1517 22.4434L25.3608 17.2752C25.3615 17.2745 25.3615 17.2738 25.3622 17.2731L38.9816 3.65365L37.968 2.64008L24.8561 15.752L23.9293 14.8251C23.7953 14.6904 23.6125 14.6151 23.4225 14.6151H20.852L19.6284 13.3915L9.59308 3.35617L8.57951 4.36974L15.2408 11.0311L6.07282 20.1991L0.969128 15.5204L0 16.5777L8.36948 24.2491V26.0841C8.36948 26.274 8.44475 26.4568 8.57951 26.5909L11.6797 29.6911C11.3966 30.0731 11.2367 30.5305 11.2367 31.015C11.2367 32.2221 12.1987 33.202 13.395 33.2443C13.4366 34.4141 14.3756 35.3532 15.5455 35.3947C15.5871 36.5646 16.5261 37.5036 17.6959 37.5452C17.7382 38.7415 18.7188 39.7035 19.9252 39.7035C20.2298 39.7035 20.5252 39.6411 20.7975 39.5257L20.852 39.5802C21.3932 40.1221 22.1136 40.4203 22.8799 40.4203C23.6462 40.4203 24.3658 40.1221 24.907 39.5802L32.6178 31.8695C33.1597 31.3276 33.4579 30.6079 33.4579 29.8423C33.4579 29.6588 33.4385 29.4782 33.4048 29.3011L44 18.706ZM7.13083 21.1689L16.2544 12.0446L18.1081 13.8983L9.06479 22.9416L7.13083 21.1689ZM14.0423 31.5835C13.8904 31.7347 13.6889 31.8186 13.4739 31.8186C13.0309 31.8186 12.6703 31.458 12.6703 31.015C12.6703 30.8 12.7542 30.5986 12.9055 30.4466L16.316 27.036C16.468 26.8848 16.6694 26.8009 16.8845 26.8009C17.3275 26.8009 17.688 27.1615 17.688 27.6044C17.688 27.8195 17.6042 28.0209 17.4529 28.1729L14.0423 31.5835ZM16.1928 33.7339C16.0408 33.8851 15.8394 33.969 15.6243 33.969C15.1813 33.969 14.8208 33.6085 14.8208 33.1655C14.8208 32.9504 14.9046 32.749 15.0559 32.597L18.4665 29.1864C18.6184 29.0352 18.8199 28.9513 19.0349 28.9513C19.4779 28.9513 19.8385 29.3119 19.8385 29.7549C19.8385 29.9699 19.7546 30.1713 19.6033 30.3233L16.1928 33.7339ZM18.3432 35.8843C18.1912 36.0356 17.9898 36.1194 17.7748 36.1194C17.3318 36.1194 16.9712 35.7589 16.9712 35.3159C16.9712 35.1009 17.0551 34.8994 17.2063 34.7475L20.6169 31.3369C20.7689 31.1856 20.9703 31.1018 21.1853 31.1018C21.6283 31.1018 21.9889 31.4623 21.9889 31.9053C21.9889 32.1204 21.905 32.3218 21.7538 32.4737L18.3432 35.8843ZM20.4936 38.0348C20.3417 38.186 20.1402 38.2699 19.9252 38.2699C19.4822 38.2699 19.1216 37.9093 19.1216 37.4663C19.1216 37.2513 19.2055 37.0499 19.3568 36.8979L22.7673 33.4873C22.9193 33.3361 23.1207 33.2522 23.3358 33.2522C23.7788 33.2522 24.1393 33.6128 24.1393 34.0557C24.1393 34.2708 24.0555 34.4722 23.9042 34.6242L20.4936 38.0348ZM31.6042 30.8559L23.8935 38.5666C23.3723 39.0878 22.4835 39.1021 21.9344 38.6218L24.9185 35.6377C25.34 35.2155 25.5729 34.6536 25.5729 34.0557C25.5729 32.8486 24.611 31.8688 23.4146 31.8265C23.3731 30.6566 22.434 29.7176 21.2642 29.676C21.2226 28.5062 20.2836 27.5672 19.1138 27.5256C19.0715 26.3292 18.0909 25.3673 16.8845 25.3673C16.2867 25.3673 15.7247 25.6002 15.3025 26.0224L12.6703 28.6546L9.8031 25.7873V24.2304L19.1216 14.9119L20.0485 15.8387C20.1825 15.9735 20.3653 16.0487 20.5553 16.0487H23.1258L23.8404 16.7634L18.5719 21.9911C18.4364 22.1259 18.3597 22.3101 18.3604 22.5015C18.3611 22.6929 18.4378 22.8764 18.574 23.0104C20.4585 24.8669 23.515 24.8555 25.3851 22.9839L25.5729 22.7968L31.6042 28.828C31.8751 29.099 32.0242 29.4588 32.0242 29.8423C32.0242 30.2258 31.8751 30.5849 31.6042 30.8559Z" fill="white"/>
<path d="M4.99824 31.7748L3.74023 32.463C3.97607 32.8938 4.23125 33.3232 4.49862 33.7382L5.7043 32.9626C5.45485 32.5755 5.21758 32.1763 4.99824 31.7748Z" fill="white"/>
<path d="M15.2266 40.6396L14.7241 41.9822C15.1836 42.1543 15.6574 42.312 16.1334 42.451L16.5362 41.0755C16.0939 40.9457 15.6538 40.7995 15.2266 40.6396Z" fill="white"/>
<path d="M10.3895 37.9939L9.52856 39.1408C9.92281 39.4368 10.3335 39.7221 10.7479 39.9888L11.5234 38.7831C11.1378 38.5344 10.7557 38.2692 10.3895 37.9939Z" fill="white"/>
<path d="M12.7126 39.4906L12.0244 40.7479C12.4559 40.9837 12.9025 41.2081 13.3519 41.4138L13.9491 40.1106C13.5304 39.9185 13.1147 39.7099 12.7126 39.4906Z" fill="white"/>
<path d="M8.3014 36.1832L7.28711 37.1961C7.63548 37.5452 8.00105 37.8857 8.37308 38.2082L9.31282 37.1251C8.96588 36.8248 8.62611 36.5072 8.3014 36.1832Z" fill="white"/>
<path d="M6.49138 34.0959L5.34448 34.9561C5.64124 35.3517 5.95449 35.7403 6.27562 36.1108L7.35872 35.1711C7.06053 34.8263 6.76879 34.4643 6.49138 34.0959Z" fill="white"/>
<path d="M2.6837 23.8842L1.25366 23.986C1.28807 24.477 1.34111 24.973 1.41064 25.4612L2.82993 25.2591C2.76542 24.8039 2.71596 24.3415 2.6837 23.8842Z" fill="white"/>
<path d="M1.25374 21.0191C1.21862 21.5065 1.20142 22.0047 1.20142 22.5V22.5022L2.63504 22.5C2.63504 22.0384 2.65152 21.5739 2.68378 21.1209L1.25374 21.0191Z" fill="white"/>
<path d="M3.07374 26.6174L1.6731 26.922C1.77775 27.4045 1.90104 27.8883 2.03939 28.36L3.41495 27.9571C3.28664 27.5177 3.17195 27.0668 3.07374 26.6174Z" fill="white"/>
<path d="M3.85063 29.2667L2.50732 29.7685C2.67936 30.2287 2.87003 30.6896 3.07504 31.1376L4.37892 30.5419C4.18825 30.124 4.01048 29.6954 3.85063 29.2667Z" fill="white"/>
<path d="M39.5988 30.5412C39.4067 30.9598 39.1981 31.3756 38.978 31.7777L40.236 32.4659C40.4719 32.0343 40.6962 31.5878 40.9019 31.1383L39.5988 30.5412Z" fill="white"/>
<path d="M38.2719 32.9662C38.0224 33.3533 37.7565 33.7346 37.4819 34.1009L38.6288 34.9618C38.9242 34.569 39.2094 34.1582 39.4775 33.7425L38.2719 32.9662Z" fill="white"/>
<path d="M36.6133 35.1761C36.3129 35.5231 35.9961 35.8635 35.6714 36.1875L36.6842 37.2018C37.0333 36.8535 37.3738 36.4879 37.6964 36.1159L36.6133 35.1761Z" fill="white"/>
<path d="M40.5642 27.9535C40.4345 28.3944 40.2883 28.8352 40.1284 29.2639L41.471 29.7656C41.6438 29.3047 41.8007 28.8302 41.9398 28.3564L40.5642 27.9535Z" fill="white"/>
<path d="M41.1485 25.2555C41.0833 25.7114 41.0008 26.1687 40.9041 26.6153L42.3054 26.9185C42.4094 26.4389 42.4975 25.9479 42.5671 25.4576L41.1485 25.2555Z" fill="white"/>
<path d="M34.6592 37.1302C34.3137 37.4298 33.9517 37.7215 33.5833 37.9982L34.4434 39.1451C34.8384 38.8491 35.2269 38.5358 35.5982 38.214L34.6592 37.1302Z" fill="white"/>
<path d="M17.8752 41.4167L17.572 42.8173C18.0516 42.9213 18.5426 43.0094 19.0329 43.079L19.235 41.6604C18.7791 41.5952 18.3218 41.5127 17.8752 41.4167Z" fill="white"/>
<path d="M41.3427 22.5C41.3427 22.9609 41.3269 23.4262 41.2947 23.8813L42.7247 23.9824C42.7591 23.4928 42.7763 22.9939 42.7763 22.5H41.3427Z" fill="white"/>
<path d="M24.7464 41.659C24.292 41.7235 23.8296 41.7729 23.3716 41.8052L23.4734 43.2352C23.9644 43.2008 24.4604 43.1478 24.9486 43.0783L24.7464 41.659Z" fill="white"/>
<path d="M21.989 41.8539C21.5281 41.8539 21.0643 41.8382 20.6091 41.8059L20.5081 43.2359C20.9969 43.2704 21.4958 43.2876 21.9897 43.2876L21.989 41.8539Z" fill="white"/>
<path d="M32.45 38.786C32.0658 39.0333 31.6665 39.2705 31.2629 39.4913L31.9511 40.7493C32.384 40.5121 32.8127 40.2576 33.2256 39.9917L32.45 38.786Z" fill="white"/>
<path d="M30.0294 40.1099C29.6115 40.3006 29.1828 40.4791 28.7549 40.6382L29.2559 41.9815C29.7161 41.8095 30.177 41.6188 30.625 41.4138L30.0294 40.1099Z" fill="white"/>
<path d="M27.4445 41.0748C27.0051 41.2031 26.5549 41.3178 26.1047 41.416L26.4094 42.8166C26.8918 42.712 27.3756 42.5887 27.8473 42.4503L27.4445 41.0748Z" fill="white"/>
<path d="M30.3505 3.53036L29.719 4.81776C30.1168 5.01273 30.5261 5.23279 30.9354 5.47149L31.658 4.23284C31.2186 3.97694 30.7784 3.74039 30.3505 3.53036Z" fill="white"/>
<path d="M21.9888 1.71252L21.6892 1.71467L21.71 3.1483L21.9888 3.14615C22.3673 3.14615 22.7372 3.15475 23.0985 3.17195L23.1658 1.73976C22.7823 1.72184 22.391 1.71252 21.9888 1.71252Z" fill="white"/>
<path d="M27.5686 2.44583L27.1665 3.82211C27.6002 3.94898 28.036 4.09736 28.4618 4.26366L28.9843 2.92896C28.5191 2.74689 28.0432 2.58489 27.5686 2.44583Z" fill="white"/>
<path d="M24.6434 1.85947L24.4771 3.28305C24.9401 3.33753 25.3974 3.40921 25.8361 3.49666L26.1157 2.09028C25.6404 1.99566 25.1451 1.91825 24.6434 1.85947Z" fill="white"/>
<path d="M14.4415 3.12463C13.9821 3.30384 13.524 3.50168 13.0796 3.71314L13.6939 5.00841C14.1082 4.81201 14.5354 4.62707 14.9634 4.46005L14.4415 3.12463Z" fill="white"/>
<path d="M17.2767 2.24942C16.7957 2.36124 16.3133 2.49099 15.8438 2.6365L16.2674 4.00632C16.7039 3.87085 17.1526 3.74971 17.6007 3.64577L17.2767 2.24942Z" fill="white"/>
<path d="M20.2076 1.78778C19.7152 1.83007 19.2192 1.88957 18.7339 1.96627L18.9575 3.38268C19.4084 3.311 19.87 3.25509 20.3288 3.21638L20.2076 1.78778Z" fill="white"/>
</g>
<defs>
<clipPath id="clip0_20_206">
<rect width="44" height="44" fill="white" transform="translate(0 0.500031)"/>
</clipPath>
</defs>
</svg>
