<svg width="80" height="80" viewBox="0 0 80 80" fill="none" xmlns="http://www.w3.org/2000/svg">
<g id="earth-day-svgrepo-com 1" clip-path="url(#clip0_61_2700)">
<g id="SVGRepo_iconCarrier">
<g id="Group">
<g id="Group_2">
<path id="Vector" d="M48.0165 12.693H46.6804C45.9887 12.693 45.4277 13.2538 45.4277 13.9456C45.4277 14.6375 45.9885 15.1983 46.6804 15.1983H48.0165C48.7082 15.1983 49.2691 14.6375 49.2691 13.9456C49.2691 13.2538 48.7082 12.693 48.0165 12.693Z" fill="black"/>
</g>
</g>
<g id="Group_3">
<g id="Group_4">
<path id="Vector_2" d="M56.0342 19.3736H53.362C52.6703 19.3736 52.1094 19.9344 52.1094 20.6263C52.1094 21.3181 52.6702 21.8789 53.362 21.8789H56.0342C56.7259 21.8789 57.2869 21.3181 57.2869 20.6263C57.2869 19.9344 56.7259 19.3736 56.0342 19.3736Z" fill="black"/>
</g>
</g>
<g id="Group_5">
<g id="Group_6">
<path id="Vector_3" d="M49.3524 27.3903H48.0163C47.3246 27.3903 46.7637 27.9511 46.7637 28.643C46.7637 29.3349 47.3245 29.8956 48.0163 29.8956H49.3524C50.0441 29.8956 50.6051 29.3349 50.6051 28.643C50.6051 27.9511 50.0441 27.3903 49.3524 27.3903Z" fill="black"/>
</g>
</g>
<g id="Group_7">
<g id="Group_8">
<path id="Vector_4" d="M21.2938 36.7432H19.9577C19.266 36.7432 18.7051 37.3039 18.7051 37.9958C18.7051 38.6877 19.2659 39.2485 19.9577 39.2485H21.2938C21.9855 39.2485 22.5465 38.6877 22.5465 37.9958C22.5465 37.3039 21.9855 36.7432 21.2938 36.7432Z" fill="black"/>
</g>
</g>
<g id="Group_9">
<g id="Group_10">
<path id="Vector_5" d="M30.6475 43.4236H27.9753C27.2836 43.4236 26.7227 43.9844 26.7227 44.6762C26.7227 45.3681 27.2834 45.9289 27.9753 45.9289H30.6475C31.3392 45.9289 31.9002 45.3681 31.9002 44.6762C31.9002 43.9844 31.3392 43.4236 30.6475 43.4236Z" fill="black"/>
</g>
</g>
<g id="Group_11">
<g id="Group_12">
<path id="Vector_6" d="M78.7467 55.4488H66.5255C66.275 55.4488 66.0302 55.5239 65.8227 55.6646L56.9016 61.7107C56.3289 62.0988 56.1792 62.8775 56.5674 63.4504C56.8096 63.8077 57.2041 64.0004 57.6053 64.0004C57.8472 64.0004 58.0917 63.9304 58.3069 63.7846L66.9099 57.9541H78.7467C79.4385 57.9541 79.9994 57.3933 79.9994 56.7015C79.9994 56.0096 79.4386 55.4488 78.7467 55.4488Z" fill="black"/>
</g>
</g>
<g id="Group_13">
<g id="Group_14">
<path id="Vector_7" d="M78.7473 42.0875H66.3433C67.4266 39.0678 67.9748 35.9003 67.9748 32.6513C67.9748 17.2258 55.4253 4.67627 39.9998 4.67627C33.8898 4.67627 28.0852 6.6108 23.2131 10.2706C22.66 10.6861 22.5486 11.4713 22.9639 12.0244C23.3794 12.5774 24.1645 12.6889 24.7177 12.2736C25.7844 11.4722 26.9009 10.7627 28.058 10.1456V12.6094C28.058 13.2064 28.4794 13.7205 29.0648 13.8377L35.0327 15.0311L36.1389 18.3499C36.2636 18.7239 36.5572 19.0174 36.9313 19.1422L40.0831 20.1928V24.2552L37.6214 27.948C37.4842 28.1538 37.4109 28.3956 37.4109 28.6428V32.6511C37.4109 33.2481 37.8323 33.7622 38.4178 33.8794L44.0914 35.0141V37.9956C44.0914 38.3278 44.2233 38.6464 44.4583 38.8813L48.6364 43.0596C45.4306 43.6199 42.9269 44.0464 42.8717 44.0558C42.7936 44.0692 42.7169 44.0897 42.6428 44.1177C41.6609 44.4852 40.8809 45.213 40.4466 46.1671C40.0122 47.1213 39.9753 48.1874 40.3427 49.1691C40.7175 50.1703 41.8286 51.8105 45.058 51.5444C46.9758 51.3866 48.675 51.2744 49.9048 51.201L49.2912 52.576L40.7134 56.7866L39.8236 56.6064C40.2108 54.7442 39.1914 52.821 37.3559 52.1341C37.2817 52.1063 37.2052 52.0856 37.127 52.0724C37.1008 52.0678 36.5188 51.9686 35.5713 51.8058C35.8369 51.6288 36.1023 51.4517 36.368 51.2747C36.7388 51.0275 37.0898 50.7903 37.2062 50.3244L38.5423 44.9799C38.5672 44.8805 38.5797 44.7785 38.5797 44.6761V37.9955C38.5797 37.4564 38.2347 36.9777 37.7233 36.8072L33.9955 35.5646L30.2844 31.853L27.6809 27.948C27.4486 27.5996 27.0577 27.3902 26.6388 27.3902H21.2942C20.8197 27.3902 20.3859 27.6583 20.1739 28.0827L18.8541 30.7224L18.5386 29.7758V25.9706C18.5386 25.4316 18.1936 24.9528 17.6822 24.7824L15.9636 24.2096C17.13 20.8844 18.9867 17.8124 21.4597 15.188C21.9342 14.6844 21.9106 13.8917 21.407 13.4174C20.9034 12.9428 20.1108 12.9666 19.6364 13.47C14.7281 18.6786 12.025 25.4908 12.025 32.6513C12.025 38.5308 13.8886 44.2671 17.3052 49.008C16.2672 49.2374 15.2814 49.6788 14.3663 50.0897L14.3342 50.1042H1.25266C0.560938 50.1042 0 50.665 0 51.3569C0 52.0488 0.560781 52.6096 1.25266 52.6096H14.6022C14.8913 52.6096 15.1366 52.4902 15.393 52.3752C16.705 51.7858 18.0623 51.176 19.2023 51.4047C24.1073 52.3869 35.2131 54.2874 36.5716 54.5192C37.2428 54.8256 37.5731 55.6064 37.3105 56.308C37.0853 56.9097 36.3577 57.1644 35.147 57.0645C31.2247 56.7417 28.2008 56.6069 28.1706 56.6056C27.2583 56.5672 26.598 57.5302 26.9716 58.3675L28.605 62.028C28.7244 62.2956 28.9339 62.5128 29.1969 62.6419L38.5645 67.2403C38.8083 67.3599 39.0842 67.397 39.3508 67.3464C39.7203 67.276 48.4369 65.6139 51.4084 64.9049C53.0659 64.5092 53.3409 65.0552 53.5417 65.4541C53.7191 65.806 53.7444 66.203 53.613 66.5719C53.483 66.9369 53.2184 67.2256 52.867 67.3864L39.8055 72.7955L25.7375 71.5166L14.1761 63.6811C13.9692 63.5408 13.7244 63.4656 13.4738 63.4656H1.25266C0.560938 63.4656 0 64.0264 0 64.7183C0 65.41 0.560781 65.971 1.25266 65.971H13.0895L24.6 73.7719C24.7753 73.8908 24.9783 73.9633 25.1892 73.9825L39.8866 75.3186C39.9245 75.3221 39.9622 75.3238 40 75.3238C40.1641 75.3238 40.327 75.2916 40.4794 75.2285L53.8442 69.6936C53.8547 69.6892 53.8652 69.6847 53.8755 69.6802C54.8505 69.2452 55.6153 68.4183 55.9734 67.4125C56.3369 66.3921 56.2678 65.2963 55.7794 64.3267C55.1558 63.0888 53.79 61.7614 50.8273 62.4681C48.2719 63.078 41.0889 64.4627 39.2928 64.807L30.7083 60.5931L30.0947 59.2181C31.3241 59.2913 33.0227 59.4035 34.9416 59.5616C36.5395 59.6928 37.6183 59.3574 38.3466 58.8639L40.635 59.3272C40.9044 59.3816 41.1888 59.345 41.4355 59.2238L50.8031 54.6253C51.0663 54.4963 51.2756 54.2789 51.395 54.0114L53.0284 50.351C53.4012 49.5153 52.7423 48.5483 51.8294 48.5891C51.7994 48.5905 48.7753 48.725 44.853 49.048C43.6428 49.1478 42.9148 48.8932 42.6895 48.2914C42.427 47.59 42.7573 46.8092 43.4286 46.5027C44.7867 46.2708 55.8927 44.3703 60.7978 43.3881C61.938 43.1599 63.295 43.7692 64.6072 44.3586C64.8637 44.4736 65.1087 44.593 65.398 44.593H78.7475C79.4392 44.593 80.0002 44.0322 80.0002 43.3403C80 42.6485 79.4392 42.0875 78.7473 42.0875ZM31.9869 51.1853C28.3597 50.553 23.6188 49.7128 20.5439 49.1155C20.5109 49.0606 20.475 49.0071 20.4327 48.9564C16.6266 44.3938 14.5303 38.6031 14.5303 32.6511C14.5303 30.5947 14.7758 28.5702 15.2513 26.6127L16.0334 26.8735V29.9789C16.0334 30.1136 16.0552 30.2474 16.0978 30.375L17.4339 34.3833C17.7792 35.4194 19.2536 35.5256 19.7425 34.5474L22.0684 29.8953H25.9684L28.2688 33.3458C28.3145 33.4144 28.3669 33.4785 28.4253 33.5367L32.4336 37.545C32.5711 37.6825 32.7388 37.7863 32.9233 37.8477L36.0752 38.8983V44.5219L34.8939 49.2471L31.9869 51.1853ZM54.7808 32.6513V37.8716L53.9306 42.1222C53.1738 42.2583 52.4075 42.395 51.6497 42.5292L46.597 37.4769V33.9874C46.597 33.3903 46.1756 32.8763 45.5902 32.7591L39.9166 31.6244V29.0222L42.3783 25.3294C42.5155 25.1236 42.5887 24.8817 42.5887 24.6346V19.29C42.5887 18.751 42.2438 18.2722 41.7323 18.1017L38.3183 16.9638L37.1803 13.5497C37.0381 13.1233 36.6784 12.8056 36.2375 12.7175L30.5639 11.5828V8.98111C33.5342 7.79486 36.7188 7.18158 40.0002 7.18158C51.9586 7.18158 62.0169 15.4663 64.7409 26.5974C64.69 26.6691 64.6455 26.7467 64.6094 26.8306L63.2245 30.0625H60.042C59.9073 30.0625 59.7736 30.0842 59.6459 30.1269L55.6377 31.463C55.1256 31.6335 54.7808 32.1121 54.7808 32.6513ZM63.9403 41.3627C62.7987 40.9452 61.5788 40.6766 60.3058 40.9314C59.2872 41.1353 57.9972 41.3797 56.5819 41.6403L57.2616 38.2413C57.2778 38.1605 57.2859 38.0781 57.2859 37.9956V33.5541L60.245 32.5677H64.0502C64.5512 32.5677 65.0042 32.2691 65.2016 31.8086L65.432 31.2706C65.4566 31.7278 65.4698 32.188 65.4698 32.6511C65.4697 35.6536 64.955 38.5785 63.9403 41.3627Z" fill="black"/>
</g>
</g>
</g>
</g>
<defs>
<clipPath id="clip0_61_2700">
<rect width="80" height="80" fill="white"/>
</clipPath>
</defs>
</svg>
