<svg width="80" height="80" viewBox="0 0 80 80" fill="none" xmlns="http://www.w3.org/2000/svg">
<g id="vector-svgrepo-com 1" clip-path="url(#clip0_62_2733)">
<g id="SVGRepo_iconCarrier">
<g id="Group">
<g id="Group_2">
<g id="Group_3">
<path id="Vector" d="M18.8008 32.3999L19.8201 33.2489C19.8924 33.3095 27.0976 39.4695 27.0976 52.9031V60.7108C24.2021 61.036 21.9363 63.4708 21.9363 66.4515C21.9363 69.4321 24.2021 71.867 27.0976 72.1921V79.9999H52.904V72.1921C55.7995 71.867 58.0653 69.4321 58.0653 66.4515C58.0653 63.4708 55.7995 61.036 52.904 60.7108V52.9031C52.904 39.5483 60.1118 33.3083 60.1814 33.2489L61.2008 32.3999L40.0008 8.37277L18.8008 32.3999ZM43.8718 38.7095C43.8718 40.8437 42.135 42.5805 40.0008 42.5805C37.8666 42.5805 36.1298 40.8437 36.1298 38.7095C36.1298 36.5754 37.8666 34.8386 40.0008 34.8386C42.135 34.8386 43.8718 36.5754 43.8718 38.7095ZM50.3234 77.4192H29.6782V72.2579H50.3234V77.4192ZM55.4847 66.4515C55.4847 68.2295 54.0369 69.6773 52.2589 69.6773H27.7427C25.9647 69.6773 24.5169 68.2295 24.5169 66.4515C24.5169 64.6734 25.9647 63.2257 27.7427 63.2257H52.2589C54.0369 63.2257 55.4847 64.6734 55.4847 66.4515ZM41.2911 13.7354L57.575 32.1908C55.4047 34.4966 50.3234 41.1495 50.3234 52.9031V60.645H29.6782V52.9031C29.6782 41.1495 24.5969 34.4966 22.4266 32.1908L38.7105 13.7354V32.3883C35.7698 32.9883 33.5492 35.5934 33.5492 38.7095C33.5492 42.267 36.4434 45.1612 40.0008 45.1612C43.5582 45.1612 46.4524 42.267 46.4524 38.7095C46.4524 35.5947 44.2318 32.9883 41.2911 32.3883V13.7354Z" fill="black"/>
<path id="Vector_2" d="M80 7.74181V-0.00012207H72.2581V2.58052H7.74194V-0.00012207H0V7.74181H7.74194V5.16117H26.3716C12.84 10.4734 3.13419 23.4412 2.6129 38.7096H0V46.4515H7.74194V38.7096H5.19355C5.87613 20.0954 21.2232 5.16117 40 5.16117C58.7768 5.16117 74.1239 20.0954 74.8064 38.7096H72.2581V46.4515H80V38.7096H77.3871C76.8658 23.4412 67.16 10.4734 53.6284 5.16117H72.2581V7.74181H80ZM74.8387 2.58052H77.4193V5.16117H74.8387V2.58052ZM5.16129 5.16117H2.58065V2.58052H5.16129V5.16117ZM5.16129 43.8708H2.58065V41.2902H5.16129V43.8708ZM74.8387 41.2902H77.4193V43.8708H74.8387V41.2902Z" fill="black"/>
</g>
</g>
</g>
</g>
</g>
<defs>
<clipPath id="clip0_62_2733">
<rect width="80" height="80" fill="white"/>
</clipPath>
</defs>
</svg>
