<svg width="80" height="80" viewBox="0 0 80 80" fill="none" xmlns="http://www.w3.org/2000/svg">
<g id="construct-outline-svgrepo-com 1">
<g id="SVGRepo_iconCarrier">
<path id="Vector" d="M68.2292 28.7672C67.4339 29.5574 66.3582 30.001 65.2371 30.001C64.1159 30.001 63.0402 29.5574 62.2449 28.7672L58.7324 25.2531C57.9419 24.4583 57.4981 23.3828 57.4981 22.2617C57.4981 21.1407 57.9419 20.0652 58.7324 19.2703L66.6839 11.3188C66.6992 11.3035 66.7106 11.2847 66.7169 11.264C66.7233 11.2434 66.7246 11.2215 66.7206 11.2002C66.7166 11.179 66.7074 11.159 66.694 11.1421C66.6805 11.1252 66.6631 11.1118 66.6433 11.1031C61.5121 8.90626 54.8574 10.0234 50.6324 14.2188C46.5886 18.2328 46.3589 24.2609 47.8402 29.5313C48.0507 30.2799 48.0501 31.0721 47.8387 31.8205C47.6272 32.5688 47.2129 33.2442 46.6417 33.7719L19.6105 58.8906C18.9653 59.4684 18.4447 60.1716 18.0806 60.9574C17.7164 61.7431 17.5164 62.5949 17.4926 63.4606C17.4689 64.3263 17.6219 65.1878 17.9425 65.9923C18.263 66.7969 18.7442 67.5276 19.3568 68.1398C19.9693 68.752 20.7003 69.2329 21.505 69.553C22.3097 69.8731 23.1712 70.0257 24.0369 70.0015C24.9026 69.9773 25.7543 69.7768 26.5399 69.4122C27.3255 69.0477 28.0284 68.5267 28.6058 67.8813L53.9417 40.8031C54.4638 40.2414 55.129 39.8325 55.866 39.6205C56.603 39.4085 57.3838 39.4014 58.1246 39.6C63.3527 40.9969 69.2949 40.7344 73.2917 36.7969C77.5871 32.5656 78.5136 25.0875 76.4324 20.8078C76.4229 20.789 76.4092 20.7728 76.3922 20.7604C76.3753 20.7479 76.3556 20.7397 76.3349 20.7363C76.3142 20.733 76.2929 20.7346 76.2729 20.741C76.2529 20.7475 76.2347 20.7586 76.2199 20.7734L68.2292 28.7672Z" stroke="black" stroke-width="2" stroke-miterlimit="10" stroke-linecap="round"/>
<path id="Vector_2" d="M34.9996 44.375C32.2683 41.7188 31.0167 40.4828 30.1558 39.6422C29.7249 39.2142 29.4421 38.6597 29.3485 38.0596C29.2549 37.4595 29.3555 36.8452 29.6355 36.3063C29.7831 36.0413 29.9672 35.7983 30.1824 35.5844L32.6324 33.1953C32.8859 32.9413 33.1841 32.7363 33.5121 32.5906C34.0298 32.3615 34.6043 32.2929 35.1614 32.3937C35.7185 32.4946 36.2325 32.7602 36.6371 33.1563C37.4886 33.9828 39.048 35.5 41.8574 38.2375" stroke="black" stroke-width="2" stroke-linecap="round" stroke-linejoin="round"/>
<path id="Vector_3" d="M49.543 45.5156C55.9414 51.4688 63.7023 58.5266 66.7305 61.0484C66.9569 61.2351 67.1418 61.4671 67.2732 61.7295C67.4047 61.992 67.4797 62.279 67.4935 62.5721C67.5074 62.8653 67.4597 63.1581 67.3536 63.4317C67.2474 63.7054 67.0852 63.9538 66.8773 64.1609L61.6617 69.375C61.4494 69.5824 61.1972 69.7445 60.9203 69.8513C60.6434 69.9581 60.3476 70.0075 60.0511 69.9964C59.7545 69.9852 59.4633 69.9139 59.1951 69.7867C58.927 69.6594 58.6876 69.479 58.4914 69.2563C55.9086 66.2594 48.9461 58.7703 42.9805 52.5375" stroke="black" stroke-width="2" stroke-linecap="round" stroke-linejoin="round"/>
<path id="Vector_4" d="M2.70953 30.2344L7.30484 25.7438C7.37503 25.6748 7.45835 25.6205 7.54987 25.5843C7.64139 25.5481 7.73925 25.5306 7.83765 25.5328C8.03602 25.5307 8.22731 25.6064 8.37046 25.7438C8.53687 25.9084 8.7386 26.0329 8.96034 26.1079C9.18207 26.1829 9.41798 26.2064 9.65015 26.1766C10.2486 26.1109 10.8877 25.9266 11.3017 25.5328C12.2392 24.6266 11.1548 22.8406 11.9798 21.6984C12.9232 20.4481 13.9561 19.2679 15.0705 18.1672C16.008 17.2484 19.733 13.7422 25.9923 11.2219C27.9941 10.4128 30.1333 9.99788 32.2923 10C35.822 10 38.5423 11.5625 39.5205 12.4484C40.1075 13.007 40.645 13.6156 41.1267 14.2672C40.6563 14.0938 40.1757 13.9493 39.6877 13.8344C38.6612 13.6166 37.6083 13.5503 36.5627 13.6375C34.4798 13.8078 31.9673 14.7719 30.6252 15.825C28.4533 17.5438 27.5205 19.8438 27.3736 22.8109C27.2673 25.0172 27.7986 26.2641 33.0142 31.4813C33.1925 31.6802 33.2866 31.9406 33.2766 32.2076C33.2667 32.4746 33.1536 32.7273 32.9611 32.9125L30.1142 35.725C29.9158 35.9196 29.6497 36.0298 29.3717 36.0324C29.0938 36.035 28.8257 35.9299 28.6236 35.7391C25.1955 32.3109 22.897 30.5688 21.5923 29.7766C20.2877 28.9844 19.2377 28.7609 18.733 28.7063C17.7418 28.608 16.7445 28.8193 15.8783 29.3109C15.7263 29.3945 15.5873 29.4997 15.4658 29.6234C15.2629 29.8331 15.1036 30.0809 14.997 30.3525C14.8904 30.6241 14.8387 30.9142 14.8448 31.2059C14.8509 31.4976 14.9147 31.7852 15.0325 32.0521C15.1504 32.319 15.3199 32.5599 15.5314 32.7609L15.7986 33.0109C15.8679 33.0784 15.9231 33.159 15.9607 33.2481C15.9984 33.3372 16.0178 33.433 16.0178 33.5297C16.0178 33.6264 15.9984 33.7222 15.9607 33.8113C15.9231 33.9004 15.8679 33.981 15.7986 34.0484L11.208 38.5313C11.1384 38.6017 11.0554 38.6573 10.9638 38.6949C10.8723 38.7325 10.7741 38.7512 10.6752 38.75C10.4768 38.752 10.2856 38.6763 10.1423 38.5391L2.70953 31.2844C2.575 31.1427 2.5 30.9548 2.5 30.7594C2.5 30.564 2.575 30.3761 2.70953 30.2344Z" stroke="black" stroke-width="2" stroke-linecap="round" stroke-linejoin="round"/>
</g>
</g>
</svg>
