<svg width="104" height="68" viewBox="0 0 104 68" fill="none" xmlns="http://www.w3.org/2000/svg">
<g clip-path="url(#clip0_83_4626)">
<g filter="url(#filter0_d_83_4626)">
<path d="M7.37741 11.3578L6.32741 16.2616H8.25491C8.97991 16.2616 9.45741 16.2041 9.85741 15.3066L10.1437 14.6766H10.9449L10.0862 18.8753H9.28491L9.24741 18.1303C9.20866 17.3291 8.69366 17.2528 8.04491 17.2528H6.11741L5.02991 22.3666C5.44991 22.4616 6.25116 22.5766 7.73991 22.5766C9.55241 22.5766 10.1637 21.9091 10.7549 21.0878L11.6512 19.8666L12.4912 19.9816L11.0974 23.7028H1.00366L1.15616 22.9591L1.76741 22.8441C2.32116 22.7491 2.45491 22.5391 2.62616 21.7378L4.64866 12.1966C4.70616 11.9478 4.74366 11.7766 4.74366 11.5853C4.74366 11.2803 4.59116 11.1653 4.24741 11.0891L3.71241 10.9741L3.86491 10.2291H13.5212L12.9874 13.7028L12.1474 13.7978L11.8999 12.2903C11.7662 11.5078 11.5762 11.3553 10.9262 11.3553H7.37616L7.37741 11.3578Z" fill="white"/>
</g>
<g filter="url(#filter1_d_83_4626)">
<path d="M32.4149 10.9766L31.8424 11.0916C31.4411 11.2641 31.1361 11.4153 30.4311 13.0566L25.7561 23.7053H23.8861L23.1424 13.5528L17.3599 23.7053H15.3761L16.2536 12.5803C16.2536 12.4466 16.2724 12.3128 16.2724 12.1991C16.2724 11.6078 16.1574 11.2441 15.6611 11.0928L15.3174 10.9778L15.4699 10.2328H20.2599L20.1074 10.9778L19.5736 11.0928C19.2299 11.1691 18.9436 11.2266 18.8674 11.5516C18.8299 11.7616 18.7911 12.1428 18.7724 12.3716L18.1236 20.3291L23.8486 10.2341H25.2986L26.1186 20.3291L28.9811 13.1353C29.2299 12.4866 29.4399 11.9716 29.5149 11.5516C29.5336 11.4941 29.5336 11.4366 29.5336 11.3991C29.5336 11.2078 29.3999 11.1316 29.1899 11.0941L28.6561 10.9791L28.8086 10.2341H32.5674L32.4149 10.9791V10.9766Z" fill="white"/>
</g>
<g filter="url(#filter2_d_83_4626)">
<path d="M40.6411 14.373L39.0961 21.2042C39.0199 21.548 38.9236 22.0442 38.9236 22.273C38.9236 22.5017 38.9999 22.6742 39.2286 22.6742C39.4761 22.6742 39.7249 22.5792 39.8961 22.5017L40.2586 22.3492L40.4299 23.0742C40.4299 23.0742 38.6936 23.9905 37.6824 23.9905C36.5761 23.9905 36.5374 22.8842 36.5374 22.2917C35.5449 23.7042 34.5536 23.9905 33.6374 23.9905C32.1111 23.9905 30.9849 23.3605 30.9849 20.9567C30.9849 19.4305 31.2324 17.7692 32.2636 16.0905C33.2936 14.4305 34.7249 14.1442 36.1186 14.1442C37.2449 14.1442 37.8749 14.2967 38.6186 14.488L40.1836 14.373H40.6411ZM37.8936 15.5942C37.3586 15.2892 36.7874 15.213 36.1949 15.213C35.3749 15.213 34.7249 15.633 34.1149 17.503C33.7711 18.5717 33.5036 20.0792 33.5036 20.7092C33.5036 22.083 34.0761 22.4842 34.7636 22.4842C35.5461 22.4842 36.2136 21.7205 36.6724 21.0905L37.8936 15.5942Z" fill="white"/>
</g>
<g filter="url(#filter3_d_83_4626)">
<path d="M48.9625 14.3168L48.7337 15.4043H46.425L45.3187 20.5756C45.185 21.1481 45.0325 21.7593 45.0325 22.0831C45.0325 22.4268 45.1475 22.6943 45.7762 22.6943C46.6737 22.6943 47.4937 22.4843 47.4937 22.4843L47.3987 23.3818C46.2925 23.6681 44.3837 23.8393 43.9637 23.8393C42.7812 23.8393 42.5325 23.2093 42.5325 22.5418C42.5512 22.1981 42.6087 21.8931 42.6662 21.6256L44.0212 15.4043H42.6475L42.8387 14.4506C43.6025 14.3168 44.0225 13.9356 44.2125 13.7256C44.8987 13.0581 45.4137 11.7793 45.6812 11.1306H47.3412L46.655 14.3181H48.9637L48.9625 14.3168Z" fill="white"/>
</g>
<g filter="url(#filter4_d_83_4626)">
<path d="M50.7561 16.1667C52.0724 14.2017 53.6762 14.1442 55.0499 14.1442C56.7487 14.1442 58.0649 14.698 58.0649 16.1667C58.0649 17.9605 57.0149 18.9342 53.6574 18.9342H52.2836C52.2074 19.2967 52.1311 19.908 52.1311 20.3842C52.1311 22.1205 53.1049 22.4455 53.8487 22.4455C54.6699 22.4455 55.6999 22.2555 57.0162 21.5305L57.2262 22.4267C55.2999 23.9342 53.9061 23.9917 52.8186 23.9917C50.6624 23.9917 49.5562 22.9417 49.5562 20.7292C49.5562 19.6792 49.8424 17.523 50.7587 16.168L50.7561 16.1667ZM54.7062 15.1742C53.4274 15.1742 52.7787 16.663 52.5112 17.9217H53.9237C54.9737 17.9217 55.7174 17.5592 55.7174 16.1667C55.7174 15.3267 55.1824 15.1742 54.7062 15.1742Z" fill="white"/>
</g>
<g filter="url(#filter5_d_83_4626)">
<path d="M61.3674 23.6854L58.9436 23.8379L60.4886 16.7966C60.5649 16.4341 60.6036 16.3191 60.6036 15.9766C60.6036 15.7091 60.5274 15.4616 60.1461 15.4041L59.7261 15.3279L59.8786 14.6604L63.1224 14.3741L62.9311 15.7291C63.9236 14.6416 65.0874 14.1454 65.9649 14.1454C66.6899 14.1454 67.2811 14.3741 67.2811 14.9466C67.2811 15.4241 67.0524 16.7016 66.4224 16.7016C66.2699 16.7016 65.1061 15.9191 64.2474 15.9191C63.5986 15.9191 63.1024 16.5104 62.7974 17.0254L61.3661 23.6854H61.3674Z" fill="white"/>
</g>
<g filter="url(#filter6_d_83_4626)">
<path d="M15.5461 37.6598C15.5461 37.6598 35.6049 29.1348 55.6649 42.6748C56.6674 43.1761 85.2524 66.7461 97.2886 49.1936C94.7811 53.2048 80.9899 74.0173 54.4111 52.9548C52.9061 51.9523 36.8586 36.4061 15.5461 37.6598Z" fill="white"/>
</g>
<g filter="url(#filter7_d_83_4626)">
<path d="M2.92968e-05 51.7011C2.92968e-05 51.7011 13.0388 27.6298 41.1213 47.6898C42.1238 48.6923 62.5475 68.0073 83.3025 62.2361C79.6788 64.2348 61.57 75.6323 38.8638 57.4686C37.2025 56.1398 13.5388 36.1561 -0.0012207 51.7011H2.92968e-05Z" fill="white"/>
</g>
<g filter="url(#filter8_d_83_4626)">
<path d="M70.9326 46.5412C67.1563 45.5862 64.8838 43.185 63.8588 39.6237C63.5138 38.425 63.3338 36.9 64.9888 36.5662C66.6188 36.2375 67.155 37.7225 67.255 38.9312C67.5063 41.9625 68.3176 44.63 70.9313 46.54L70.9326 46.5412Z" fill="white"/>
</g>
<g filter="url(#filter9_d_83_4626)">
<path d="M95.4538 19.4348C92.0688 7.14354 82.0051 -2.83146 83.0738 0.73104C84.1426 4.29354 83.4301 6.25354 73.9888 19.0785C64.5476 31.9035 71.9063 44.6773 80.0451 45.6198C94.6513 47.3123 98.8376 31.726 95.4538 19.4348ZM79.6376 41.1948C78.4338 42.3785 77.2713 41.376 76.4713 40.4185C74.0951 37.5748 73.3788 34.3473 74.7038 30.6835C74.8226 33.9198 76.5776 36.0848 78.9476 37.991C79.8926 38.751 80.8226 40.0273 79.6376 41.1935V41.1948Z" fill="white"/>
</g>
<g filter="url(#filter10_d_83_4626)">
<path d="M101.455 31.8585C99.2638 31.2373 98.4475 33.071 97.9025 34.8398C97.7563 35.3173 97.6775 35.8185 97.5625 36.2998C96.8963 39.1148 95.1075 43.9635 90.4675 46.2573C95.8713 46.251 101.618 41.256 102.861 36.0998C103.261 34.4423 103.52 32.4435 101.454 31.8585H101.455Z" fill="white"/>
</g>
</g>
<defs>
<filter id="filter0_d_83_4626" x="-6.99634" y="4.2291" width="28.5176" height="29.4738" filterUnits="userSpaceOnUse" color-interpolation-filters="sRGB">
<feFlood flood-opacity="0" result="BackgroundImageFix"/>
<feColorMatrix in="SourceAlpha" type="matrix" values="0 0 0 0 0 0 0 0 0 0 0 0 0 0 0 0 0 0 127 0" result="hardAlpha"/>
<feOffset dy="2"/>
<feGaussianBlur stdDeviation="4"/>
<feColorMatrix type="matrix" values="0 0 0 0 0 0 0 0 0 0 0 0 0 0 0 0 0 0 0.15 0"/>
<feBlend mode="normal" in2="BackgroundImageFix" result="effect1_dropShadow_83_4626"/>
<feBlend mode="normal" in="SourceGraphic" in2="effect1_dropShadow_83_4626" result="shape"/>
</filter>
<filter id="filter1_d_83_4626" x="7.31738" y="4.23285" width="33.25" height="29.4725" filterUnits="userSpaceOnUse" color-interpolation-filters="sRGB">
<feFlood flood-opacity="0" result="BackgroundImageFix"/>
<feColorMatrix in="SourceAlpha" type="matrix" values="0 0 0 0 0 0 0 0 0 0 0 0 0 0 0 0 0 0 127 0" result="hardAlpha"/>
<feOffset dy="2"/>
<feGaussianBlur stdDeviation="4"/>
<feColorMatrix type="matrix" values="0 0 0 0 0 0 0 0 0 0 0 0 0 0 0 0 0 0 0.15 0"/>
<feBlend mode="normal" in2="BackgroundImageFix" result="effect1_dropShadow_83_4626"/>
<feBlend mode="normal" in="SourceGraphic" in2="effect1_dropShadow_83_4626" result="shape"/>
</filter>
<filter id="filter2_d_83_4626" x="22.9849" y="8.14423" width="25.6562" height="25.8463" filterUnits="userSpaceOnUse" color-interpolation-filters="sRGB">
<feFlood flood-opacity="0" result="BackgroundImageFix"/>
<feColorMatrix in="SourceAlpha" type="matrix" values="0 0 0 0 0 0 0 0 0 0 0 0 0 0 0 0 0 0 127 0" result="hardAlpha"/>
<feOffset dy="2"/>
<feGaussianBlur stdDeviation="4"/>
<feColorMatrix type="matrix" values="0 0 0 0 0 0 0 0 0 0 0 0 0 0 0 0 0 0 0.15 0"/>
<feBlend mode="normal" in2="BackgroundImageFix" result="effect1_dropShadow_83_4626"/>
<feBlend mode="normal" in="SourceGraphic" in2="effect1_dropShadow_83_4626" result="shape"/>
</filter>
<filter id="filter3_d_83_4626" x="34.5325" y="5.13055" width="22.4312" height="28.7087" filterUnits="userSpaceOnUse" color-interpolation-filters="sRGB">
<feFlood flood-opacity="0" result="BackgroundImageFix"/>
<feColorMatrix in="SourceAlpha" type="matrix" values="0 0 0 0 0 0 0 0 0 0 0 0 0 0 0 0 0 0 127 0" result="hardAlpha"/>
<feOffset dy="2"/>
<feGaussianBlur stdDeviation="4"/>
<feColorMatrix type="matrix" values="0 0 0 0 0 0 0 0 0 0 0 0 0 0 0 0 0 0 0.15 0"/>
<feBlend mode="normal" in2="BackgroundImageFix" result="effect1_dropShadow_83_4626"/>
<feBlend mode="normal" in="SourceGraphic" in2="effect1_dropShadow_83_4626" result="shape"/>
</filter>
<filter id="filter4_d_83_4626" x="41.5562" y="8.14423" width="24.5088" height="25.8475" filterUnits="userSpaceOnUse" color-interpolation-filters="sRGB">
<feFlood flood-opacity="0" result="BackgroundImageFix"/>
<feColorMatrix in="SourceAlpha" type="matrix" values="0 0 0 0 0 0 0 0 0 0 0 0 0 0 0 0 0 0 127 0" result="hardAlpha"/>
<feOffset dy="2"/>
<feGaussianBlur stdDeviation="4"/>
<feColorMatrix type="matrix" values="0 0 0 0 0 0 0 0 0 0 0 0 0 0 0 0 0 0 0.15 0"/>
<feBlend mode="normal" in2="BackgroundImageFix" result="effect1_dropShadow_83_4626"/>
<feBlend mode="normal" in="SourceGraphic" in2="effect1_dropShadow_83_4626" result="shape"/>
</filter>
<filter id="filter5_d_83_4626" x="50.9436" y="8.14536" width="24.3374" height="25.6925" filterUnits="userSpaceOnUse" color-interpolation-filters="sRGB">
<feFlood flood-opacity="0" result="BackgroundImageFix"/>
<feColorMatrix in="SourceAlpha" type="matrix" values="0 0 0 0 0 0 0 0 0 0 0 0 0 0 0 0 0 0 127 0" result="hardAlpha"/>
<feOffset dy="2"/>
<feGaussianBlur stdDeviation="4"/>
<feColorMatrix type="matrix" values="0 0 0 0 0 0 0 0 0 0 0 0 0 0 0 0 0 0 0.15 0"/>
<feBlend mode="normal" in2="BackgroundImageFix" result="effect1_dropShadow_83_4626"/>
<feBlend mode="normal" in="SourceGraphic" in2="effect1_dropShadow_83_4626" result="shape"/>
</filter>
<filter id="filter6_d_83_4626" x="7.54614" y="29.0114" width="97.7424" height="43.2245" filterUnits="userSpaceOnUse" color-interpolation-filters="sRGB">
<feFlood flood-opacity="0" result="BackgroundImageFix"/>
<feColorMatrix in="SourceAlpha" type="matrix" values="0 0 0 0 0 0 0 0 0 0 0 0 0 0 0 0 0 0 127 0" result="hardAlpha"/>
<feOffset dy="2"/>
<feGaussianBlur stdDeviation="4"/>
<feColorMatrix type="matrix" values="0 0 0 0 0 0 0 0 0 0 0 0 0 0 0 0 0 0 0.15 0"/>
<feBlend mode="normal" in2="BackgroundImageFix" result="effect1_dropShadow_83_4626"/>
<feBlend mode="normal" in="SourceGraphic" in2="effect1_dropShadow_83_4626" result="shape"/>
</filter>
<filter id="filter7_d_83_4626" x="-8.00122" y="33.7073" width="99.3037" height="43.8926" filterUnits="userSpaceOnUse" color-interpolation-filters="sRGB">
<feFlood flood-opacity="0" result="BackgroundImageFix"/>
<feColorMatrix in="SourceAlpha" type="matrix" values="0 0 0 0 0 0 0 0 0 0 0 0 0 0 0 0 0 0 127 0" result="hardAlpha"/>
<feOffset dy="2"/>
<feGaussianBlur stdDeviation="4"/>
<feColorMatrix type="matrix" values="0 0 0 0 0 0 0 0 0 0 0 0 0 0 0 0 0 0 0.15 0"/>
<feBlend mode="normal" in2="BackgroundImageFix" result="effect1_dropShadow_83_4626"/>
<feBlend mode="normal" in="SourceGraphic" in2="effect1_dropShadow_83_4626" result="shape"/>
</filter>
<filter id="filter8_d_83_4626" x="55.6282" y="30.5198" width="23.3044" height="26.0214" filterUnits="userSpaceOnUse" color-interpolation-filters="sRGB">
<feFlood flood-opacity="0" result="BackgroundImageFix"/>
<feColorMatrix in="SourceAlpha" type="matrix" values="0 0 0 0 0 0 0 0 0 0 0 0 0 0 0 0 0 0 127 0" result="hardAlpha"/>
<feOffset dy="2"/>
<feGaussianBlur stdDeviation="4"/>
<feColorMatrix type="matrix" values="0 0 0 0 0 0 0 0 0 0 0 0 0 0 0 0 0 0 0.15 0"/>
<feBlend mode="normal" in2="BackgroundImageFix" result="effect1_dropShadow_83_4626"/>
<feBlend mode="normal" in="SourceGraphic" in2="effect1_dropShadow_83_4626" result="shape"/>
</filter>
<filter id="filter9_d_83_4626" x="61.5542" y="-6" width="43.0042" height="61.7466" filterUnits="userSpaceOnUse" color-interpolation-filters="sRGB">
<feFlood flood-opacity="0" result="BackgroundImageFix"/>
<feColorMatrix in="SourceAlpha" type="matrix" values="0 0 0 0 0 0 0 0 0 0 0 0 0 0 0 0 0 0 127 0" result="hardAlpha"/>
<feOffset dy="2"/>
<feGaussianBlur stdDeviation="4"/>
<feColorMatrix type="matrix" values="0 0 0 0 0 0 0 0 0 0 0 0 0 0 0 0 0 0 0.15 0"/>
<feBlend mode="normal" in2="BackgroundImageFix" result="effect1_dropShadow_83_4626"/>
<feBlend mode="normal" in="SourceGraphic" in2="effect1_dropShadow_83_4626" result="shape"/>
</filter>
<filter id="filter10_d_83_4626" x="82.4675" y="25.735" width="28.6692" height="30.5223" filterUnits="userSpaceOnUse" color-interpolation-filters="sRGB">
<feFlood flood-opacity="0" result="BackgroundImageFix"/>
<feColorMatrix in="SourceAlpha" type="matrix" values="0 0 0 0 0 0 0 0 0 0 0 0 0 0 0 0 0 0 127 0" result="hardAlpha"/>
<feOffset dy="2"/>
<feGaussianBlur stdDeviation="4"/>
<feColorMatrix type="matrix" values="0 0 0 0 0 0 0 0 0 0 0 0 0 0 0 0 0 0 0.15 0"/>
<feBlend mode="normal" in2="BackgroundImageFix" result="effect1_dropShadow_83_4626"/>
<feBlend mode="normal" in="SourceGraphic" in2="effect1_dropShadow_83_4626" result="shape"/>
</filter>
<clipPath id="clip0_83_4626">
<rect width="103.137" height="67.6" fill="white"/>
</clipPath>
</defs>
</svg>
