<svg width="104" height="68" viewBox="0 0 104 68" fill="none" xmlns="http://www.w3.org/2000/svg">
<g clip-path="url(#clip0_195_2078)">
<g filter="url(#filter0_d_195_2078)">
<path d="M7.37766 11.3578L6.32766 16.2616H8.25516C8.98016 16.2616 9.45766 16.2041 9.85766 15.3066L10.1439 14.6766H10.9452L10.0864 18.8753H9.28516L9.24766 18.1303C9.20891 17.3291 8.69391 17.2528 8.04516 17.2528H6.11766L5.03016 22.3666C5.45016 22.4616 6.25141 22.5766 7.74016 22.5766C9.55266 22.5766 10.1639 21.9091 10.7552 21.0878L11.6514 19.8666L12.4914 19.9816L11.0977 23.7028H1.00391L1.15641 22.9591L1.76766 22.8441C2.32141 22.7491 2.45516 22.5391 2.62641 21.7378L4.64891 12.1966C4.70641 11.9478 4.74391 11.7766 4.74391 11.5853C4.74391 11.2803 4.59141 11.1653 4.24766 11.0891L3.71266 10.9741L3.86516 10.2291H13.5214L12.9877 13.7028L12.1477 13.7978L11.9002 12.2903C11.7664 11.5078 11.5764 11.3553 10.9264 11.3553H7.37641L7.37766 11.3578Z" fill="#1F2937"/>
</g>
<g filter="url(#filter1_d_195_2078)">
<path d="M32.4149 10.9766L31.8424 11.0916C31.4411 11.2641 31.1361 11.4153 30.4311 13.0566L25.7561 23.7053H23.8861L23.1424 13.5528L17.3599 23.7053H15.3761L16.2536 12.5803C16.2536 12.4466 16.2724 12.3128 16.2724 12.1991C16.2724 11.6078 16.1574 11.2441 15.6611 11.0928L15.3174 10.9778L15.4699 10.2328H20.2599L20.1074 10.9778L19.5736 11.0928C19.2299 11.1691 18.9436 11.2266 18.8674 11.5516C18.8299 11.7616 18.7911 12.1428 18.7724 12.3716L18.1236 20.3291L23.8486 10.2341H25.2986L26.1186 20.3291L28.9811 13.1353C29.2299 12.4866 29.4399 11.9716 29.5149 11.5516C29.5336 11.4941 29.5336 11.4366 29.5336 11.3991C29.5336 11.2078 29.3999 11.1316 29.1899 11.0941L28.6561 10.9791L28.8086 10.2341H32.5674L32.4149 10.9791V10.9766Z" fill="#1F2937"/>
</g>
<g filter="url(#filter2_d_195_2078)">
<path d="M40.6416 14.373L39.0966 21.2042C39.0203 21.548 38.9241 22.0442 38.9241 22.273C38.9241 22.5017 39.0003 22.6742 39.2291 22.6742C39.4766 22.6742 39.7254 22.5792 39.8966 22.5017L40.2591 22.3492L40.4304 23.0742C40.4304 23.0742 38.6941 23.9905 37.6828 23.9905C36.5766 23.9905 36.5378 22.8842 36.5378 22.2917C35.5453 23.7042 34.5541 23.9905 33.6379 23.9905C32.1116 23.9905 30.9854 23.3605 30.9854 20.9567C30.9854 19.4305 31.2328 17.7692 32.2641 16.0905C33.2941 14.4305 34.7254 14.1442 36.1191 14.1442C37.2454 14.1442 37.8754 14.2967 38.6191 14.488L40.1841 14.373H40.6416ZM37.8941 15.5942C37.3591 15.2892 36.7879 15.213 36.1954 15.213C35.3754 15.213 34.7254 15.633 34.1154 17.503C33.7716 18.5717 33.5041 20.0792 33.5041 20.7092C33.5041 22.083 34.0766 22.4842 34.7641 22.4842C35.5466 22.4842 36.2141 21.7205 36.6729 21.0905L37.8941 15.5942Z" fill="#1F2937"/>
</g>
<g filter="url(#filter3_d_195_2078)">
<path d="M48.9622 14.3168L48.7335 15.4043H46.4247L45.3185 20.5756C45.1847 21.1481 45.0322 21.7593 45.0322 22.0831C45.0322 22.4268 45.1472 22.6943 45.776 22.6943C46.6735 22.6943 47.4935 22.4843 47.4935 22.4843L47.3985 23.3818C46.2922 23.6681 44.3835 23.8393 43.9635 23.8393C42.781 23.8393 42.5322 23.2093 42.5322 22.5418C42.551 22.1981 42.6085 21.8931 42.666 21.6256L44.021 15.4043H42.6472L42.8385 14.4506C43.6022 14.3168 44.0222 13.9356 44.2122 13.7256C44.8985 13.0581 45.4135 11.7793 45.681 11.1306H47.341L46.6547 14.3181H48.9635L48.9622 14.3168Z" fill="#1F2937"/>
</g>
<g filter="url(#filter4_d_195_2078)">
<path d="M50.7566 16.1667C52.0729 14.2017 53.6766 14.1442 55.0504 14.1442C56.7491 14.1442 58.0654 14.698 58.0654 16.1667C58.0654 17.9605 57.0154 18.9342 53.6579 18.9342H52.2841C52.2079 19.2967 52.1316 19.908 52.1316 20.3842C52.1316 22.1205 53.1054 22.4455 53.8491 22.4455C54.6704 22.4455 55.7004 22.2555 57.0166 21.5305L57.2266 22.4267C55.3004 23.9342 53.9066 23.9917 52.8191 23.9917C50.6629 23.9917 49.5566 22.9417 49.5566 20.7292C49.5566 19.6792 49.8429 17.523 50.7591 16.168L50.7566 16.1667ZM54.7066 15.1742C53.4279 15.1742 52.7791 16.663 52.5116 17.9217H53.9241C54.9741 17.9217 55.7179 17.5592 55.7179 16.1667C55.7179 15.3267 55.1829 15.1742 54.7066 15.1742Z" fill="#1F2937"/>
</g>
<g filter="url(#filter5_d_195_2078)">
<path d="M61.3681 23.6854L58.9443 23.8379L60.4893 16.7966C60.5656 16.4341 60.6043 16.3191 60.6043 15.9766C60.6043 15.7091 60.5281 15.4616 60.1468 15.4041L59.7268 15.3279L59.8793 14.6604L63.1231 14.3741L62.9318 15.7291C63.9243 14.6416 65.0881 14.1454 65.9656 14.1454C66.6906 14.1454 67.2818 14.3741 67.2818 14.9466C67.2818 15.4241 67.0531 16.7016 66.4231 16.7016C66.2706 16.7016 65.1068 15.9191 64.2481 15.9191C63.5993 15.9191 63.1031 16.5104 62.7981 17.0254L61.3668 23.6854H61.3681Z" fill="#1F2937"/>
</g>
<g filter="url(#filter6_d_195_2078)">
<path d="M15.5459 37.6598C15.5459 37.6598 35.6047 29.1348 55.6646 42.6748C56.6671 43.1761 85.2522 66.7461 97.2884 49.1936C94.7809 53.2048 80.9897 74.0173 54.4109 52.9548C52.9059 51.9523 36.8584 36.4061 15.5459 37.6598Z" fill="#1F2937"/>
</g>
<g filter="url(#filter7_d_195_2078)">
<path d="M0.000273437 51.7011C0.000273437 51.7011 13.039 27.6298 41.1215 47.6898C42.124 48.6923 62.5478 68.0073 83.3028 62.2361C79.679 64.2348 61.5703 75.6323 38.864 57.4686C37.2028 56.1398 13.539 36.1561 -0.000976562 51.7011H0.000273437Z" fill="#1F2937"/>
</g>
<g filter="url(#filter8_d_195_2078)">
<path d="M70.9323 46.5412C67.1561 45.5862 64.8836 43.185 63.8586 39.6237C63.5136 38.425 63.3336 36.9 64.9886 36.5662C66.6186 36.2375 67.1548 37.7225 67.2548 38.9312C67.5061 41.9625 68.3173 44.63 70.9311 46.54L70.9323 46.5412Z" fill="#1F2937"/>
</g>
<g filter="url(#filter9_d_195_2078)">
<path d="M95.4533 19.4348C92.0683 7.14354 82.0046 -2.83146 83.0733 0.73104C84.1421 4.29354 83.4296 6.25354 73.9883 19.0785C64.5471 31.9035 71.9058 44.6773 80.0446 45.6198C94.6508 47.3123 98.8371 31.726 95.4533 19.4348ZM79.6371 41.1948C78.4333 42.3785 77.2708 41.376 76.4708 40.4185C74.0946 37.5748 73.3783 34.3473 74.7033 30.6835C74.8221 33.9198 76.5771 36.0848 78.9471 37.991C79.8921 38.751 80.8221 40.0273 79.6371 41.1935V41.1948Z" fill="#1F2937"/>
</g>
<g filter="url(#filter10_d_195_2078)">
<path d="M101.455 31.8585C99.264 31.2373 98.4478 33.071 97.9028 34.8398C97.7565 35.3173 97.6778 35.8185 97.5628 36.2998C96.8965 39.1148 95.1078 43.9635 90.4678 46.2573C95.8715 46.251 101.618 41.256 102.862 36.0998C103.262 34.4423 103.52 32.4435 101.454 31.8585H101.455Z" fill="#1F2937"/>
</g>
</g>
<defs>
<filter id="filter0_d_195_2078" x="-6.99609" y="4.2291" width="28.5176" height="29.4738" filterUnits="userSpaceOnUse" color-interpolation-filters="sRGB">
<feFlood flood-opacity="0" result="BackgroundImageFix"/>
<feColorMatrix in="SourceAlpha" type="matrix" values="0 0 0 0 0 0 0 0 0 0 0 0 0 0 0 0 0 0 127 0" result="hardAlpha"/>
<feOffset dy="2"/>
<feGaussianBlur stdDeviation="4"/>
<feColorMatrix type="matrix" values="0 0 0 0 0 0 0 0 0 0 0 0 0 0 0 0 0 0 0.15 0"/>
<feBlend mode="normal" in2="BackgroundImageFix" result="effect1_dropShadow_195_2078"/>
<feBlend mode="normal" in="SourceGraphic" in2="effect1_dropShadow_195_2078" result="shape"/>
</filter>
<filter id="filter1_d_195_2078" x="7.31738" y="4.23285" width="33.25" height="29.4725" filterUnits="userSpaceOnUse" color-interpolation-filters="sRGB">
<feFlood flood-opacity="0" result="BackgroundImageFix"/>
<feColorMatrix in="SourceAlpha" type="matrix" values="0 0 0 0 0 0 0 0 0 0 0 0 0 0 0 0 0 0 127 0" result="hardAlpha"/>
<feOffset dy="2"/>
<feGaussianBlur stdDeviation="4"/>
<feColorMatrix type="matrix" values="0 0 0 0 0 0 0 0 0 0 0 0 0 0 0 0 0 0 0.15 0"/>
<feBlend mode="normal" in2="BackgroundImageFix" result="effect1_dropShadow_195_2078"/>
<feBlend mode="normal" in="SourceGraphic" in2="effect1_dropShadow_195_2078" result="shape"/>
</filter>
<filter id="filter2_d_195_2078" x="22.9854" y="8.14423" width="25.6562" height="25.8463" filterUnits="userSpaceOnUse" color-interpolation-filters="sRGB">
<feFlood flood-opacity="0" result="BackgroundImageFix"/>
<feColorMatrix in="SourceAlpha" type="matrix" values="0 0 0 0 0 0 0 0 0 0 0 0 0 0 0 0 0 0 127 0" result="hardAlpha"/>
<feOffset dy="2"/>
<feGaussianBlur stdDeviation="4"/>
<feColorMatrix type="matrix" values="0 0 0 0 0 0 0 0 0 0 0 0 0 0 0 0 0 0 0.15 0"/>
<feBlend mode="normal" in2="BackgroundImageFix" result="effect1_dropShadow_195_2078"/>
<feBlend mode="normal" in="SourceGraphic" in2="effect1_dropShadow_195_2078" result="shape"/>
</filter>
<filter id="filter3_d_195_2078" x="34.5322" y="5.13055" width="22.4316" height="28.7087" filterUnits="userSpaceOnUse" color-interpolation-filters="sRGB">
<feFlood flood-opacity="0" result="BackgroundImageFix"/>
<feColorMatrix in="SourceAlpha" type="matrix" values="0 0 0 0 0 0 0 0 0 0 0 0 0 0 0 0 0 0 127 0" result="hardAlpha"/>
<feOffset dy="2"/>
<feGaussianBlur stdDeviation="4"/>
<feColorMatrix type="matrix" values="0 0 0 0 0 0 0 0 0 0 0 0 0 0 0 0 0 0 0.15 0"/>
<feBlend mode="normal" in2="BackgroundImageFix" result="effect1_dropShadow_195_2078"/>
<feBlend mode="normal" in="SourceGraphic" in2="effect1_dropShadow_195_2078" result="shape"/>
</filter>
<filter id="filter4_d_195_2078" x="41.5566" y="8.14423" width="24.5088" height="25.8475" filterUnits="userSpaceOnUse" color-interpolation-filters="sRGB">
<feFlood flood-opacity="0" result="BackgroundImageFix"/>
<feColorMatrix in="SourceAlpha" type="matrix" values="0 0 0 0 0 0 0 0 0 0 0 0 0 0 0 0 0 0 127 0" result="hardAlpha"/>
<feOffset dy="2"/>
<feGaussianBlur stdDeviation="4"/>
<feColorMatrix type="matrix" values="0 0 0 0 0 0 0 0 0 0 0 0 0 0 0 0 0 0 0.15 0"/>
<feBlend mode="normal" in2="BackgroundImageFix" result="effect1_dropShadow_195_2078"/>
<feBlend mode="normal" in="SourceGraphic" in2="effect1_dropShadow_195_2078" result="shape"/>
</filter>
<filter id="filter5_d_195_2078" x="50.9443" y="8.14536" width="24.3379" height="25.6925" filterUnits="userSpaceOnUse" color-interpolation-filters="sRGB">
<feFlood flood-opacity="0" result="BackgroundImageFix"/>
<feColorMatrix in="SourceAlpha" type="matrix" values="0 0 0 0 0 0 0 0 0 0 0 0 0 0 0 0 0 0 127 0" result="hardAlpha"/>
<feOffset dy="2"/>
<feGaussianBlur stdDeviation="4"/>
<feColorMatrix type="matrix" values="0 0 0 0 0 0 0 0 0 0 0 0 0 0 0 0 0 0 0.15 0"/>
<feBlend mode="normal" in2="BackgroundImageFix" result="effect1_dropShadow_195_2078"/>
<feBlend mode="normal" in="SourceGraphic" in2="effect1_dropShadow_195_2078" result="shape"/>
</filter>
<filter id="filter6_d_195_2078" x="7.5459" y="29.0114" width="97.7422" height="43.2245" filterUnits="userSpaceOnUse" color-interpolation-filters="sRGB">
<feFlood flood-opacity="0" result="BackgroundImageFix"/>
<feColorMatrix in="SourceAlpha" type="matrix" values="0 0 0 0 0 0 0 0 0 0 0 0 0 0 0 0 0 0 127 0" result="hardAlpha"/>
<feOffset dy="2"/>
<feGaussianBlur stdDeviation="4"/>
<feColorMatrix type="matrix" values="0 0 0 0 0 0 0 0 0 0 0 0 0 0 0 0 0 0 0.15 0"/>
<feBlend mode="normal" in2="BackgroundImageFix" result="effect1_dropShadow_195_2078"/>
<feBlend mode="normal" in="SourceGraphic" in2="effect1_dropShadow_195_2078" result="shape"/>
</filter>
<filter id="filter7_d_195_2078" x="-8.00098" y="33.7073" width="99.3037" height="43.8926" filterUnits="userSpaceOnUse" color-interpolation-filters="sRGB">
<feFlood flood-opacity="0" result="BackgroundImageFix"/>
<feColorMatrix in="SourceAlpha" type="matrix" values="0 0 0 0 0 0 0 0 0 0 0 0 0 0 0 0 0 0 127 0" result="hardAlpha"/>
<feOffset dy="2"/>
<feGaussianBlur stdDeviation="4"/>
<feColorMatrix type="matrix" values="0 0 0 0 0 0 0 0 0 0 0 0 0 0 0 0 0 0 0.15 0"/>
<feBlend mode="normal" in2="BackgroundImageFix" result="effect1_dropShadow_195_2078"/>
<feBlend mode="normal" in="SourceGraphic" in2="effect1_dropShadow_195_2078" result="shape"/>
</filter>
<filter id="filter8_d_195_2078" x="55.6279" y="30.5198" width="23.3047" height="26.0214" filterUnits="userSpaceOnUse" color-interpolation-filters="sRGB">
<feFlood flood-opacity="0" result="BackgroundImageFix"/>
<feColorMatrix in="SourceAlpha" type="matrix" values="0 0 0 0 0 0 0 0 0 0 0 0 0 0 0 0 0 0 127 0" result="hardAlpha"/>
<feOffset dy="2"/>
<feGaussianBlur stdDeviation="4"/>
<feColorMatrix type="matrix" values="0 0 0 0 0 0 0 0 0 0 0 0 0 0 0 0 0 0 0.15 0"/>
<feBlend mode="normal" in2="BackgroundImageFix" result="effect1_dropShadow_195_2078"/>
<feBlend mode="normal" in="SourceGraphic" in2="effect1_dropShadow_195_2078" result="shape"/>
</filter>
<filter id="filter9_d_195_2078" x="61.5537" y="-6" width="43.0039" height="61.7466" filterUnits="userSpaceOnUse" color-interpolation-filters="sRGB">
<feFlood flood-opacity="0" result="BackgroundImageFix"/>
<feColorMatrix in="SourceAlpha" type="matrix" values="0 0 0 0 0 0 0 0 0 0 0 0 0 0 0 0 0 0 127 0" result="hardAlpha"/>
<feOffset dy="2"/>
<feGaussianBlur stdDeviation="4"/>
<feColorMatrix type="matrix" values="0 0 0 0 0 0 0 0 0 0 0 0 0 0 0 0 0 0 0.15 0"/>
<feBlend mode="normal" in2="BackgroundImageFix" result="effect1_dropShadow_195_2078"/>
<feBlend mode="normal" in="SourceGraphic" in2="effect1_dropShadow_195_2078" result="shape"/>
</filter>
<filter id="filter10_d_195_2078" x="82.4678" y="25.735" width="28.6689" height="30.5223" filterUnits="userSpaceOnUse" color-interpolation-filters="sRGB">
<feFlood flood-opacity="0" result="BackgroundImageFix"/>
<feColorMatrix in="SourceAlpha" type="matrix" values="0 0 0 0 0 0 0 0 0 0 0 0 0 0 0 0 0 0 127 0" result="hardAlpha"/>
<feOffset dy="2"/>
<feGaussianBlur stdDeviation="4"/>
<feColorMatrix type="matrix" values="0 0 0 0 0 0 0 0 0 0 0 0 0 0 0 0 0 0 0.15 0"/>
<feBlend mode="normal" in2="BackgroundImageFix" result="effect1_dropShadow_195_2078"/>
<feBlend mode="normal" in="SourceGraphic" in2="effect1_dropShadow_195_2078" result="shape"/>
</filter>
<clipPath id="clip0_195_2078">
<rect width="103.137" height="67.6" fill="white"/>
</clipPath>
</defs>
</svg>
