<svg width="36" height="24" viewBox="0 0 36 24" fill="none" xmlns="http://www.w3.org/2000/svg">
<rect width="36" height="24" rx="6" fill="#EF4444"/>
<path d="M22.642 10.1378L19.6666 9.70535L18.3366 7.00886C18.3002 6.93503 18.2405 6.87527 18.1666 6.83894C17.9815 6.74753 17.7565 6.8237 17.6639 7.00886L16.3338 9.70535L13.3584 10.1378C13.2764 10.1495 13.2014 10.1882 13.144 10.2468C13.0746 10.3181 13.0363 10.4141 13.0376 10.5136C13.0389 10.6132 13.0797 10.7081 13.151 10.7776L15.3038 12.8764L14.7952 15.8401C14.7832 15.9091 14.7909 15.98 14.8172 16.0448C14.8435 16.1096 14.8875 16.1658 14.9441 16.2069C15.0007 16.248 15.0677 16.2724 15.1375 16.2774C15.2072 16.2824 15.277 16.2677 15.3389 16.235L18.0002 14.8358L20.6616 16.235C20.7342 16.2737 20.8186 16.2866 20.8995 16.2725C21.1034 16.2374 21.2405 16.044 21.2053 15.8401L20.6967 12.8764L22.8495 10.7776C22.908 10.7202 22.9467 10.6452 22.9584 10.5632C22.9901 10.3581 22.8471 10.1682 22.642 10.1378Z" fill="#FFA940"/>
</svg>
